<svg width="24" height="24" viewBox="0 0 24 24" fill="none" xmlns="http://www.w3.org/2000/svg">
<path d="M12.0013 21.9998C13.3421 22.0092 14.6703 21.7399 15.9013 21.209C17.083 20.7026 18.158 19.9772 19.0693 19.0712C19.9966 18.1607 20.7341 17.0758 21.2393 15.8791C21.7501 14.6551 22.0092 13.341 22.0013 12.015C22.0112 10.6791 21.7521 9.35483 21.2393 8.12091C20.7288 6.93564 19.9917 5.86118 19.0693 4.95773C18.1645 4.03663 17.0884 3.30065 15.9013 2.79104C14.6703 2.26005 13.3421 1.99074 12.0013 2.00024C10.6604 1.99077 9.33222 2.26008 8.10126 2.79104C6.90769 3.30496 5.82253 4.04018 4.90326 4.95773C4.00426 5.85636 3.29026 6.90976 2.76326 8.11991C2.25011 9.35376 1.99063 10.678 2.00026 12.014C2.00026 13.3809 2.25426 14.6699 2.76326 15.8791C3.26486 17.0704 3.99141 18.1541 4.90326 19.0712C5.82326 19.9699 6.88826 20.6818 8.10026 21.208C9.33115 21.7392 10.6593 22.0089 12.0003 21.9998H12.0013ZM13.4383 5.68962L13.6733 5.45697H16.0773V7.82836L13.6733 12.4244L13.8493 12.659H16.0773V15.938H12.0313L11.6783 16.1726L10.5643 18.3094L10.3303 18.573H7.92526V16.1726L10.3303 11.5756L10.1543 11.341H7.92326V8.062H11.9733L12.3253 7.82736L13.4393 5.69062L13.4383 5.68962Z" fill="#FECC39"/>
</svg>
