<svg width="24" height="24" viewBox="0 0 24 24" fill="none" xmlns="http://www.w3.org/2000/svg">
<path d="M12 3.8018C14.6701 3.8018 14.9864 3.81199 16.0409 3.86009C17.0158 3.90458 17.5453 4.06748 17.8977 4.20442C18.3645 4.38582 18.6976 4.60254 19.0475 4.95246C19.3975 5.30239 19.6142 5.63552 19.7956 6.10228C19.9325 6.45466 20.0954 6.98417 20.1399 7.95914C20.188 9.01361 20.1982 9.32988 20.1982 12C20.1982 14.6701 20.188 14.9864 20.1399 16.0409C20.0954 17.0158 19.9325 17.5453 19.7956 17.8977C19.6142 18.3645 19.3975 18.6976 19.0475 19.0475C18.6976 19.3975 18.3645 19.6142 17.8977 19.7956C17.5453 19.9325 17.0158 20.0954 16.0409 20.1399C14.9865 20.188 14.6703 20.1982 12 20.1982C9.3297 20.1982 9.01346 20.188 7.95915 20.1399C6.98417 20.0954 6.45466 19.9325 6.10228 19.7956C5.63552 19.6142 5.30239 19.3975 4.95248 19.0475C4.60255 18.6976 4.38582 18.3645 4.20442 17.8977C4.06748 17.5453 3.90458 17.0158 3.86009 16.0409C3.81199 14.9864 3.8018 14.6701 3.8018 12C3.8018 9.32988 3.81199 9.01361 3.86009 7.95915C3.90458 6.98417 4.06748 6.45466 4.20442 6.10228C4.38582 5.63552 4.60254 5.30239 4.95246 4.95248C5.30239 4.60254 5.63552 4.38582 6.10228 4.20442C6.45466 4.06748 6.98417 3.90458 7.95914 3.86009C9.01361 3.81199 9.32988 3.8018 12 3.8018ZM12 2C9.28416 2 8.94362 2.0115 7.87702 2.06017C6.81261 2.10873 6.08571 2.27778 5.44961 2.52499C4.79203 2.78054 4.23434 3.12247 3.6784 3.6784C3.12247 4.23434 2.78054 4.79203 2.52499 5.44961C2.27778 6.08571 2.10873 6.81261 2.06017 7.87702C2.0115 8.94362 2 9.28415 2 12C2 14.7158 2.0115 15.0564 2.06017 16.123C2.10873 17.1874 2.27778 17.9143 2.52499 18.5504C2.78054 19.208 3.12247 19.7657 3.6784 20.3216C4.23434 20.8775 4.79203 21.2195 5.44961 21.475C6.08571 21.7222 6.81261 21.8913 7.87702 21.9398C8.94362 21.9885 9.28416 22 12 22C14.7158 22 15.0564 21.9885 16.123 21.9398C17.1874 21.8913 17.9143 21.7222 18.5504 21.475C19.208 21.2195 19.7657 20.8775 20.3216 20.3216C20.8775 19.7657 21.2195 19.208 21.475 18.5504C21.7222 17.9143 21.8913 17.1874 21.9398 16.123C21.9885 15.0564 22 14.7158 22 12C22 9.28416 21.9885 8.94362 21.9398 7.87702C21.8913 6.81261 21.7222 6.08571 21.475 5.44961C21.2195 4.79203 20.8775 4.23434 20.3216 3.6784C19.7657 3.12247 19.208 2.78054 18.5504 2.52499C17.9143 2.27778 17.1874 2.10873 16.123 2.06017C15.0564 2.0115 14.7158 2 12 2ZM12 6.86486C9.16394 6.86486 6.86486 9.16394 6.86486 12C6.86486 14.8361 9.16394 17.1351 12 17.1351C14.8361 17.1351 17.1351 14.8361 17.1351 12C17.1351 9.16394 14.8361 6.86486 12 6.86486ZM12 15.3333C10.1591 15.3333 8.66667 13.8409 8.66667 12C8.66667 10.1591 10.1591 8.66667 12 8.66667C13.8409 8.66667 15.3333 10.159 15.3333 12C15.3333 13.841 13.8409 15.3333 12 15.3333ZM17.338 5.46197C16.6753 5.46197 16.138 5.99923 16.138 6.66197C16.138 7.32472 16.6753 7.86197 17.338 7.86197C18.0008 7.86197 18.538 7.32472 18.538 6.66197C18.538 5.99923 18.0008 5.46197 17.338 5.46197Z" fill="#FECC39"/>
</svg>
