<svg width="24" height="24" viewBox="0 0 24 24" fill="none" xmlns="http://www.w3.org/2000/svg">
<path d="M19.0409 19.0413H16.0776V14.4004C16.0776 13.2937 16.0578 11.8691 14.5363 11.8691C12.9929 11.8691 12.7567 13.0748 12.7567 14.3198V19.041H9.79336V9.49735H12.6382V10.8016H12.678C12.9627 10.3148 13.3741 9.91432 13.8684 9.64285C14.3627 9.37137 14.9214 9.23905 15.4849 9.25996C18.4884 9.25996 19.0422 11.2356 19.0422 13.8058L19.0409 19.0413ZM6.44969 8.1928C6.10957 8.19287 5.77706 8.09206 5.49422 7.90315C5.21139 7.71423 4.99094 7.44568 4.86073 7.13146C4.73051 6.81725 4.69638 6.47147 4.76268 6.13786C4.82897 5.80425 4.99271 5.49779 5.23317 5.25724C5.47363 5.01669 5.78002 4.85284 6.11359 4.78643C6.44716 4.72001 6.79293 4.754 7.10719 4.88411C7.42144 5.01422 7.69006 5.23459 7.87907 5.51737C8.06808 5.80014 8.16901 6.13262 8.16907 6.47275C8.16911 6.69859 8.12466 6.92223 8.03827 7.13089C7.95189 7.33956 7.82527 7.52916 7.66561 7.68889C7.50595 7.84861 7.31638 7.97532 7.10775 8.06178C6.89913 8.14824 6.67552 8.19276 6.44969 8.1928ZM7.93137 19.0413H4.96491V9.49735H7.93137V19.0413ZM20.5183 2.0013H3.47583C3.08901 1.99694 2.71626 2.14633 2.43953 2.41664C2.1628 2.68696 2.00472 3.05608 2 3.44291V20.5567C2.00456 20.9437 2.16255 21.3131 2.43927 21.5837C2.71599 21.8543 3.08882 22.0039 3.47583 21.9998H20.5183C20.9061 22.0047 21.28 21.8554 21.5578 21.5848C21.8356 21.3143 21.9946 20.9445 22 20.5567V3.44167C21.9945 3.05408 21.8353 2.68453 21.5575 2.41423C21.2797 2.14392 20.9059 1.99495 20.5183 2.00007" fill="#FECC39"/>
</svg>
