<svg width="400" height="300" viewBox="0 0 400 300" fill="none" xmlns="http://www.w3.org/2000/svg">
<path d="M139.063 138.406L263.286 108.628V202.521C236.954 196.216 210.63 189.91 184.314 183.605C182.063 183.074 179.817 182.509 177.566 181.979C169.189 179.952 160.783 177.955 152.423 175.957C147.983 174.861 143.514 173.799 139.074 172.738C136.673 170.567 134.754 167.918 133.44 164.962C132.127 162.005 131.448 158.806 131.448 155.572C131.448 152.337 132.127 149.138 133.44 146.182C134.754 143.225 136.673 140.576 139.074 138.406M279.126 116.682C279.126 115.302 278.821 113.939 278.231 112.691C277.642 111.443 276.783 110.341 275.717 109.464C274.651 108.586 273.403 107.956 272.064 107.617C270.725 107.278 269.327 107.239 267.971 107.504V203.639C269.327 203.904 270.724 203.865 272.063 203.527C273.401 203.188 274.649 202.558 275.715 201.681C276.781 200.805 277.64 199.703 278.229 198.456C278.819 197.209 279.125 195.846 279.126 194.467V116.682ZM300 157.133C299.999 155.082 299.594 153.052 298.808 151.158C298.021 149.264 296.869 147.543 295.416 146.094C293.964 144.645 292.24 143.496 290.343 142.712C288.446 141.929 286.413 141.526 284.36 141.528C284.17 141.513 283.979 141.513 283.789 141.528V172.681C283.978 172.71 284.169 172.721 284.36 172.715C288.504 172.713 292.478 171.068 295.407 168.141C298.337 165.213 299.983 161.243 299.983 157.104M126.646 155.575C126.679 150.484 128.392 145.547 131.52 141.528H109.377C108.146 141.526 106.926 141.767 105.788 142.237C104.65 142.707 103.616 143.396 102.745 144.266C101.874 145.135 101.183 146.168 100.712 147.304C100.241 148.44 99.9993 149.658 100 150.888V160.255C99.9985 161.485 100.24 162.704 100.711 163.841C101.181 164.978 101.872 166.011 102.743 166.881C103.614 167.751 104.649 168.441 105.787 168.911C106.925 169.382 108.145 169.623 109.377 169.621H131.503C128.383 165.599 126.676 160.663 126.646 155.575ZM192.783 231.733C196.211 229.769 197.629 224.433 196.211 218.97C185.457 209.576 183.583 202.766 184.149 198.086C184.554 194.775 186.4 190.78 184.366 188.348L184.303 188.286C182.051 187.755 179.806 187.195 177.554 186.665C169.177 184.633 160.771 182.635 152.411 180.637L179.971 228.331C181.222 230.475 183.271 232.039 185.671 232.68C188.071 233.322 190.627 232.99 192.783 231.756M205.149 98.4172C207.225 97.526 208.912 95.9195 209.902 93.8902C210.892 91.8609 211.12 89.544 210.543 87.3613C210.304 86.4843 209.932 85.649 209.44 84.8841C205.453 78.7148 199.806 73.7924 193.146 70.6812C186.487 67.5699 179.085 66.3956 171.789 67.2929C151.971 69.7358 136.863 87.3727 137.531 107.281C137.626 110.078 138.021 112.856 138.709 115.569C140.097 121.031 146.234 123.811 151.417 121.579L193.583 103.383L205.149 98.4058M215.383 88.6626L215.28 88.7825C216.034 90.9099 215.997 93.237 215.177 95.3397C214.357 97.4424 212.807 99.1807 210.811 100.238L199.691 106.145C199.691 106.145 209.171 111.008 228.223 104.599C247.274 98.1889 245.08 86.0885 245.08 86.0885L215.383 88.6626Z" fill="#FECC39"/>
</svg>
