<svg width="24" height="24" viewBox="0 0 24 24" fill="none" xmlns="http://www.w3.org/2000/svg">
<path d="M2 12.0012C2.052 9.16269 3.05432 6.79219 5.00776 4.89212C6.9612 2.99204 9.29222 2.0264 12 2C14.9158 2.052 17.306 3.04804 19.1682 4.98812C21.0305 6.9282 21.9744 9.26669 22 12.0012C21.948 14.8133 20.9457 17.1782 18.9922 19.0919C17.038 21.004 14.7078 21.9744 12 22C11.0617 22 10.1257 21.856 9.18822 21.5696C9.37061 21.2832 9.5522 20.9576 9.73458 20.5935C9.94256 20.1511 10.2025 19.3175 10.5169 18.0934C10.5953 17.755 10.7129 17.299 10.8689 16.7254C11.0513 17.0374 11.3633 17.3238 11.8072 17.5854C12.9791 18.1318 14.215 18.0798 15.5173 17.4294C16.8716 16.647 17.8091 15.4373 18.3291 13.7973C18.7971 12.0788 18.7395 10.4827 18.1531 9.01228C17.5668 7.54022 16.5188 6.48018 15.0094 5.82815C13.1095 5.28173 11.2593 5.34013 9.4634 6.00416C7.66755 6.66819 6.41645 7.80903 5.7117 9.4227C5.52932 10.0211 5.41973 10.6147 5.37973 11.2012C5.33973 11.7876 5.35973 12.3596 5.43813 12.9196C5.51652 13.4797 5.7125 13.9821 6.02448 14.4237C6.33645 14.8653 6.75482 15.2061 7.27478 15.4397C7.40517 15.4917 7.50916 15.4917 7.58675 15.4397C7.69075 15.3877 7.79474 15.1797 7.89873 14.8157C8.00272 14.4517 8.04272 14.2037 8.01712 14.0733C7.99072 14.0213 7.93873 13.9293 7.86113 13.7989C7.31477 12.9124 7.13079 11.9828 7.31477 11.0068C7.49716 10.0307 7.90113 9.20269 8.52508 8.52666C9.489 7.66663 10.6153 7.19861 11.9032 7.1202C13.1911 7.0418 14.2934 7.39462 15.2029 8.17465C15.6973 8.74667 16.0173 9.4371 16.1589 10.2451C16.3013 11.0532 16.3029 11.8276 16.1589 12.5692C16.0149 13.3109 15.7605 14.0077 15.3965 14.6597C14.7446 15.6757 13.9766 16.1958 13.0927 16.2222C12.5728 16.1958 12.1488 15.9942 11.8224 15.6157C11.496 15.2373 11.3984 14.8013 11.5304 14.3077C11.5824 14.0213 11.7384 13.4613 11.9984 12.6276C12.2584 11.7932 12.4024 11.1692 12.4288 10.7531C12.3504 9.76271 11.8944 9.25469 11.0609 9.22909C10.4089 9.30749 9.92897 9.6011 9.61459 10.1075C9.30022 10.6139 9.13223 11.1956 9.10663 11.846C9.18503 12.602 9.30262 13.122 9.4586 13.4085C9.17223 14.5805 8.95064 15.5189 8.79466 16.2206C8.74266 16.403 8.59867 16.963 8.36429 17.9006C8.12991 18.8391 8.00032 19.5551 7.97392 20.0487V21.1432C6.12607 20.2831 4.66619 19.0407 3.59987 17.4126C2.53356 15.7846 2 13.9797 2 12.0012Z" fill="#FECC39"/>
</svg>
