<svg width="20" height="20" viewBox="0 0 20 20" fill="none" xmlns="http://www.w3.org/2000/svg">
<path fill-rule="evenodd" clip-rule="evenodd" d="M16.5116 4.51526C17.2287 4.70693 17.7934 5.27168 17.9851 5.98876C18.3334 7.28851 18.3334 10.0003 18.3334 10.0003C18.3334 10.0003 18.3334 12.7121 17.9851 14.0119C17.7934 14.729 17.2287 15.2937 16.5116 15.4854C15.2119 15.8337 10 15.8337 10 15.8337C10 15.8337 4.78823 15.8337 3.48848 15.4854C2.7714 15.2937 2.20665 14.729 2.01498 14.0119C1.66671 12.7121 1.66671 10.0003 1.66671 10.0003C1.66671 10.0003 1.66671 7.28851 2.01498 5.98876C2.20665 5.27168 2.7714 4.70693 3.48848 4.51526C4.78823 4.16699 10 4.16699 10 4.16699C10 4.16699 15.2119 4.16699 16.5116 4.51526ZM12.6516 10.0003L8.29549 12.4623V7.53809L12.6516 10.0003Z" fill="black"/>
</svg>
