<svg width="24" height="24" viewBox="0 0 24 24" fill="none" xmlns="http://www.w3.org/2000/svg">
<path fill-rule="evenodd" clip-rule="evenodd" d="M19.8139 5.41792C20.6744 5.64793 21.3521 6.32563 21.5821 7.18612C22 8.74582 22 12 22 12C22 12 22 15.2542 21.5821 16.8139C21.3521 17.6744 20.6744 18.3521 19.8139 18.5821C18.2542 19 12 19 12 19C12 19 5.74583 19 4.18613 18.5821C3.32563 18.3521 2.64793 17.6744 2.41793 16.8139C2 15.2542 2 12 2 12C2 12 2 8.74582 2.41793 7.18612C2.64793 6.32563 3.32563 5.64793 4.18613 5.41792C5.74583 5 12 5 12 5C12 5 18.2542 5 19.8139 5.41792ZM15.1818 12L9.95453 14.9545V9.04541L15.1818 12Z" fill="#FECC39"/>
</svg>
