<svg width="24" height="24" viewBox="0 0 24 24" fill="none" xmlns="http://www.w3.org/2000/svg">
<path fill-rule="evenodd" clip-rule="evenodd" d="M13.5004 3.45831C15.4448 1.5139 18.5973 1.5139 20.5417 3.45831C22.4861 5.40272 22.4861 8.55523 20.5417 10.4996L17.1943 13.847C16.6501 14.3913 15.7759 14.4046 15.2155 13.8868C15.1838 15.1499 14.6716 16.3698 13.7587 17.2827L10.4996 20.5417C8.55523 22.4861 5.40272 22.4861 3.45831 20.5417C1.5139 18.5973 1.5139 15.4448 3.45831 13.5004L6.80566 10.153C7.34994 9.60873 8.22414 9.59545 8.78452 10.1132C8.81621 8.8501 9.32844 7.63023 10.2413 6.71733L13.5004 3.45831ZM9.02251 11.9284C8.9673 12.0153 8.90178 12.0975 8.82596 12.1733L5.47861 15.5207C4.64999 16.3493 4.64999 17.6928 5.47861 18.5214C6.30724 19.35 7.65071 19.35 8.47933 18.5214L11.7384 15.2624C12.24 14.7607 12.4578 14.0415 12.3186 13.3459L11.8544 11.0249C11.6997 10.2513 12.2014 9.49864 12.9751 9.34391C13.7487 9.18918 14.5014 9.69092 14.6561 10.4646L14.9775 12.0716C15.0327 11.9847 15.0982 11.9025 15.174 11.8267L18.5214 8.47933C19.35 7.65071 19.35 6.30724 18.5214 5.47861C17.6928 4.64999 16.3493 4.64999 15.5207 5.47861L12.2616 8.73763C11.76 9.23928 11.5422 9.95846 11.6814 10.6541L12.1456 12.9751C12.3003 13.7487 11.7986 14.5014 11.0249 14.6561C10.2513 14.8108 9.49865 14.3091 9.34391 13.5354L9.02251 11.9284Z" fill="#FECC39"/>
</svg>
