<svg width="20" height="20" viewBox="0 0 20 20" fill="none" xmlns="http://www.w3.org/2000/svg">
<path fill-rule="evenodd" clip-rule="evenodd" d="M7.04279 4.84776L8.55296 3.38026C9.61219 2.35097 12.4298 3.47886 14.9672 5.94715C17.5073 8.41543 18.6679 11.156 17.6087 12.1853L16.0985 13.6528C15.8343 13.9121 15.4581 14.0391 14.9965 14.0391C14.9509 14.0391 14.9037 14.0348 14.8562 14.0305C14.8399 14.029 14.8235 14.0275 14.8071 14.0262V14.4047C14.8071 15.0477 14.2601 15.6284 13.3396 16.077C13.3236 16.0848 13.3076 16.0925 13.2916 16.0977C12.1256 16.6526 10.3834 17 8.40355 17C6.42375 17 4.68149 16.6526 3.51551 16.0977C3.4995 16.0925 3.4835 16.0848 3.46749 16.077C2.54696 15.6285 2 15.0477 2 14.4047V12.3305C2 10.8759 4.81226 9.73511 8.40354 9.73511C8.41155 9.73511 8.42022 9.73576 8.42889 9.73641C8.43756 9.73705 8.44623 9.7377 8.45424 9.7377C7.85389 8.99352 7.37631 8.24163 7.05879 7.53641C6.51182 6.32302 6.50649 5.3689 7.04279 4.84776ZM11.5707 9.25025C14.0174 11.6278 16.5174 12.512 17.2324 11.8171C17.9449 11.1248 17.0376 8.69278 14.591 6.31526C12.6859 4.46145 10.7488 3.5151 9.64691 3.5151C9.33474 3.5151 9.08927 3.59288 8.92918 3.74585C8.21677 4.44079 9.12675 6.87008 11.5707 9.25025ZM8.90249 10.264C8.73706 10.2588 8.57164 10.2536 8.40355 10.2536C4.94563 10.2536 2.5336 11.3504 2.5336 12.3304C2.5336 13.3105 4.9456 14.4046 8.40351 14.4046C10.2605 14.4046 12.0029 14.0805 13.1155 13.5386C12.934 13.4531 13.0781 13.5308 12.5658 13.2586C12.0536 12.9864 9.91905 11.3271 9.40677 10.8033C8.89449 10.2795 9.06525 10.4455 8.90249 10.264Z" fill="#FECC39"/>
</svg>
