<svg width="24" height="24" viewBox="0 0 24 24" fill="none" xmlns="http://www.w3.org/2000/svg">
<path d="M12 18C8.72727 18 6 15.3009 6 12.0182C6 8.69909 8.72727 6 12 6C15.3091 6 18 8.69909 18 12.0182C18 15.3009 15.3091 18 12 18ZM7.52727 12.0182C7.52727 14.4985 9.52727 16.5046 12 16.5046C14.5091 16.5046 16.5091 14.4985 16.5091 12.0182C16.5091 9.50152 14.5091 7.49544 12 7.49544C9.52727 7.49544 7.52727 9.50152 7.52727 12.0182ZM9.01818 12.0182C9.01818 10.3404 10.3636 8.99088 12 8.99088C13.1636 8.99088 14.2545 9.64742 14.7636 10.8146L13.3818 11.4347C13.2727 11.0334 12.7273 10.4863 12 10.4863C11.1636 10.4863 10.5091 11.1793 10.5091 12.0182C10.5091 12.8571 11.1636 13.5137 12 13.5137C12.7636 13.5137 13.2727 12.9666 13.3818 12.5653L14.7636 13.1854C14.2545 14.3891 13.0909 15.0091 12 15.0091C10.3636 15.0091 9.01818 13.6596 9.01818 12.0182Z" fill="black"/>
</svg>
