<svg width="48" height="48" viewBox="0 0 48 48" fill="none" xmlns="http://www.w3.org/2000/svg">
<path d="M24.3558 35.9475C22.1074 35.9475 20.1374 35.6207 18.4459 34.9672C16.775 34.2932 15.4548 33.3538 14.4852 32.1488C13.5363 30.9438 13.0413 29.5551 13 27.9825H18.1364C18.2808 29.2283 18.8997 30.2188 19.993 30.954C21.1069 31.6689 22.5921 32.0263 24.4487 32.0263C26.2021 32.0263 27.5326 31.7505 28.4402 31.1991C29.3685 30.6477 29.8326 29.9227 29.8326 29.0241C29.8326 28.4931 29.6882 28.0438 29.3994 27.6761C29.1313 27.3085 28.6568 27.0022 27.9761 26.7571C27.316 26.4916 26.3877 26.3078 25.1913 26.2057L21.9423 25.8993C18.9925 25.6338 16.8162 24.919 15.4135 23.7549C14.0108 22.5908 13.3094 21.0489 13.3094 19.1291C13.3094 17.6586 13.7323 16.4026 14.5781 15.3611C15.4444 14.2991 16.6512 13.4821 18.1983 12.9103C19.7454 12.3384 21.571 12.0525 23.6751 12.0525C25.7792 12.0525 27.6151 12.3691 29.1828 13.0022C30.7712 13.6149 32.0192 14.4829 32.9269 15.6061C33.8345 16.709 34.3296 18.0058 34.4121 19.4967H29.3066C29.1828 18.4756 28.6568 17.6382 27.7286 16.9847C26.8003 16.3107 25.4285 15.9737 23.6132 15.9737C21.9423 15.9737 20.6634 16.2392 19.7764 16.7702C18.91 17.3012 18.4768 18.0263 18.4768 18.9453C18.4768 19.3742 18.6006 19.7724 18.8481 20.14C19.0956 20.4872 19.5288 20.7732 20.1477 20.9978C20.7665 21.2225 21.6123 21.3859 22.685 21.488L26.2124 21.7943C28.3371 21.9781 30.0389 22.3559 31.3179 22.9278C32.6174 23.4792 33.556 24.2144 34.1336 25.1335C34.7112 26.0525 35 27.1656 35 28.4726C35 29.9227 34.5668 31.2195 33.7004 32.3632C32.834 33.4865 31.6067 34.3647 30.0183 34.9978C28.4299 35.6309 26.5424 35.9475 24.3558 35.9475ZM25.903 10V38H22.0352V10H25.903Z" fill="black"/>
</svg>
