<svg width="24" height="24" viewBox="0 0 24 24" fill="none" xmlns="http://www.w3.org/2000/svg">
<path d="M10.7351 3.08819C6.36343 3.70309 3 7.45876 3 12C3 16.9706 7.02944 21 12 21C16.9706 21 21 16.9706 21 12C21 11.3126 20.9229 10.6432 20.777 10H19V10.5C19 10.7761 18.7761 11 18.5 11H17V11.2929L17.8536 12.1464C18.0488 12.3417 18.0488 12.6583 17.8536 12.8536L16 14.7071V16.5C16 16.5776 15.9819 16.6542 15.9472 16.7236L14.9472 18.7236L14.8536 18.8536L13.8536 19.8536C13.6583 20.0488 13.3417 20.0488 13.1464 19.8536L12.1464 18.8536C12.0527 18.7598 12 18.6326 12 18.5V15.7071L11.1464 14.8536C11.0527 14.7598 11 14.6326 11 14.5V13.7071L10.2038 12.9109L8.27639 11.9472L8.14645 11.8536L7.14645 10.8536C6.95118 10.6583 6.95118 10.3417 7.14645 10.1464L8 9.29289V8.5C8 8.22386 8.22386 8 8.5 8H10.2929L11.1464 7.14645C11.3417 6.95118 11.6583 6.95118 11.8536 7.14645L12.7962 8.08907L14.618 9H15.2929L16 8.29289V7.70711L15.1464 6.85355C15.0527 6.75979 15 6.63261 15 6.5V6H14V6.5C14 6.77614 13.7761 7 13.5 7H12.5C12.3674 7 12.2402 6.94732 12.1464 6.85355L11.2929 6H10.5C10.0545 6 9.83146 5.46143 10.1464 5.14645L11 4.29289V3.61803L10.7351 3.08819ZM12 22C6.47715 22 2 17.5228 2 12C2 6.47715 6.47715 2 12 2C17.5228 2 22 6.47715 22 12C22 17.5228 17.5228 22 12 22Z" fill="white"/>
</svg>
