<svg width="48" height="48" viewBox="0 0 48 48" fill="none" xmlns="http://www.w3.org/2000/svg">
<path d="M12.5 19.7746H30.6917V22.8476H12.5V19.7746ZM12.5 25.0602H30.6917V28.1332H12.5V25.0602ZM15.1951 24.0154C15.1951 21.6184 15.7463 19.5288 16.8489 17.7465C17.9514 15.9437 19.4827 14.5403 21.4427 13.5365C23.4232 12.5122 25.7304 12 28.3642 12C29.773 12 31.0899 12.1229 32.3149 12.3688C33.5399 12.6146 34.6016 12.9321 35.5 13.3214V17.4392C34.5608 16.9885 33.5195 16.6402 32.3762 16.3944C31.2532 16.1485 30.1303 16.0256 29.0073 16.0256C27.1902 16.0256 25.6385 16.3431 24.3522 16.9782C23.0863 17.5928 22.1165 18.4942 21.4427 19.6825C20.769 20.8707 20.4321 22.315 20.4321 24.0154C20.4321 25.6953 20.769 27.1293 21.4427 28.3175C22.1165 29.5058 23.0863 30.4072 24.3522 31.0218C25.6385 31.6364 27.1902 31.9437 29.0073 31.9437C30.1099 31.9437 31.2328 31.831 32.3762 31.6056C33.5195 31.3598 34.5608 31.0115 35.5 30.5608V34.7093C34.6016 35.0986 33.5399 35.4059 32.3149 35.6312C31.1103 35.8771 29.8036 36 28.3948 36C25.7406 36 23.4232 35.4981 21.4427 34.4942C19.4623 33.4904 17.9208 32.0871 16.8182 30.2843C15.7361 28.4814 15.1951 26.3918 15.1951 24.0154Z" fill="black"/>
</svg>
