<svg xmlns="http://www.w3.org/2000/svg" width="32" height="32" viewBox="0 0 24 24" fill="none">
  <path d="M21.805 12.23c0-.76-.068-1.49-.195-2.19H12v4.14h5.49a4.7 4.7 0 0 1-2.04 3.08v2.56h3.3c1.94-1.79 3.055-4.43 3.055-7.59z" fill="#4285F4"/>
  <path d="M12 22c2.76 0 5.08-.91 6.78-2.46l-3.3-2.56c-.91.61-2.07.97-3.48.97-2.67 0-4.93-1.8-5.74-4.22H2.85v2.64A10 10 0 0 0 12 22z" fill="#34A853"/>
  <path d="M6.26 13.73A5.99 5.99 0 0 1 5.94 12c0-.6.11-1.18.32-1.73V7.63H2.85A10 10 0 0 0 2 12c0 1.62.39 3.15 1.08 4.37l3.18-2.64z" fill="#FBBC05"/>
  <path d="M12 6.05c1.5 0 2.84.52 3.9 1.53l2.92-2.92C17.08 3.03 14.76 2 12 2a10 10 0 0 0-9.15 5.63l3.41 2.64c.81-2.42 3.07-4.22 5.74-4.22z" fill="#EA4335"/>
</svg>
