<svg width="24" height="24" viewBox="0 0 24 24" fill="none" xmlns="http://www.w3.org/2000/svg">
<g opacity="0.5">
<path fill-rule="evenodd" clip-rule="evenodd" d="M21 4.41467L4.41463 21L2.99996 19.5853L19.5853 3L21 4.41467Z" fill="#FECC39"/>
<path d="M9.53443 18.7082C14.5621 19.9154 19.8315 17.2947 21.8437 12.3816L22 11.9999L21.8435 11.6182C21.3567 10.4307 20.6657 9.35357 19.8133 8.42928L18.4041 9.83852C18.9852 10.4782 19.4718 11.2059 19.843 12.0004C18.2859 15.3412 14.8188 17.2701 11.2732 16.9693L9.53443 18.7082Z" fill="#FECC39"/>
<path d="M15.9712 12.2714C15.8378 14.2712 14.2408 15.8616 12.2548 15.9878L15.9712 12.2714Z" fill="#FECC39"/>
<path d="M8.02881 11.7285L11.745 8.01233C9.75913 8.13859 8.1623 9.72882 8.02881 11.7285Z" fill="#FECC39"/>
<path d="M12.7266 7.03072C9.1811 6.73002 5.71405 8.65893 4.15704 11.9996C4.5282 12.7942 5.01473 13.5218 5.59585 14.1615L4.18661 15.5707C3.33424 14.6464 2.6433 13.5693 2.15648 12.3819L2 12.0002L2.15634 11.6184C4.16852 6.70542 9.4378 4.08472 14.4654 5.29189L12.7266 7.03072Z" fill="#FECC39"/>
</g>
</svg>
