<svg width="48" height="48" viewBox="0 0 48 48" fill="none" xmlns="http://www.w3.org/2000/svg">
<path d="M23.6919 36C21.5766 36 19.7283 35.7026 18.1469 35.1077C16.5861 34.4923 15.3744 33.6513 14.5118 32.5846C13.6698 31.4974 13.2488 30.2564 13.2488 28.8615C13.2488 28.041 13.372 27.3333 13.6185 26.7385C13.8855 26.1231 14.3476 25.6 15.0047 25.1692C15.6619 24.7179 16.5656 24.3282 17.7156 24C18.8863 23.6718 20.3547 23.3744 22.1209 23.1077L25.3246 22.4C26.8444 22.0923 27.9431 21.6615 28.6209 21.1077C29.2986 20.5538 29.6374 19.8667 29.6374 19.0462C29.6374 18.1231 29.1856 17.3744 28.282 16.8C27.3784 16.2256 26.0742 15.9385 24.3697 15.9385C22.5829 15.9385 21.248 16.2462 20.3649 16.8615C19.4818 17.4769 18.9581 18.2359 18.7938 19.1385H13.6801C13.8033 17.7231 14.3167 16.4821 15.2204 15.4154C16.124 14.3282 17.3562 13.4872 18.9171 12.8923C20.4779 12.2974 22.2954 12 24.3697 12C26.4439 12 28.2409 12.2974 29.7607 12.8923C31.3009 13.4667 32.4818 14.2564 33.3033 15.2615C34.1453 16.2667 34.5664 17.4256 34.5664 18.7385C34.5664 19.6 34.4226 20.3385 34.1351 20.9538C33.8476 21.5692 33.3752 22.1026 32.718 22.5538C32.0608 22.9846 31.1675 23.3641 30.0379 23.6923C28.9289 24.0205 27.5427 24.3179 25.8791 24.5846L22.9218 25.2615C21.7717 25.4872 20.8476 25.7744 20.1493 26.1231C19.451 26.4513 18.9479 26.8513 18.6398 27.3231C18.3318 27.7744 18.1777 28.2872 18.1777 28.8615C18.1777 29.8051 18.6603 30.5744 19.6256 31.1692C20.6114 31.7641 21.9771 32.0615 23.7227 32.0615C25.5916 32.0615 27.0292 31.7744 28.0355 31.2C29.0419 30.6256 29.658 29.8051 29.8839 28.7385H34.9976C34.8949 30.1949 34.361 31.4769 33.3957 32.5846C32.451 33.6718 31.1572 34.5128 29.5142 35.1077C27.8918 35.7026 25.951 36 23.6919 36ZM11 27.4462V25.0154H37V27.4462H11ZM11 22.9231V20.4615H37V22.9231H11Z" fill="black"/>
</svg>
