<svg width="100" height="100" viewBox="0 0 100 100" fill="none" xmlns="http://www.w3.org/2000/svg">
<g clip-path="url(#clip0_1_1233)">
<path d="M50.0759 0V15.7179L61.502 43.6487H42.4441L52.6035 68.5681H78.2683L50.0759 0ZM51.3426 49.6204H64.0177L69.3481 62.5846H56.6298L51.3426 49.6204ZM32.0389 43.6428L21.8796 68.5622H28.3411L38.5004 43.6428H32.0389Z" fill="white"/>
<path d="M40.9217 94.0243H17.9201L25.7447 75.0825H19.2459L9 99.9999H47.0094V75.0825H40.9217V94.0243Z" fill="white"/>
<path d="M42.4599 34.0915L45.3867 26.9121H38.9233L36.0004 34.0915H42.4599ZM84.6452 100.002H91.1086L80.9473 75.0828H53.9115V100.002H59.9972V93.5761H82.0271L84.6452 100.002ZM59.9972 87.4884V81.1706H76.9681L79.5429 87.4884H59.9972Z" fill="white"/>
</g>
<defs>
<clipPath id="clip0_1_1233">
<rect width="100" height="100" fill="white"/>
</clipPath>
</defs>
</svg>
