<svg width="20" height="20" viewBox="0 0 20 20" fill="none" xmlns="http://www.w3.org/2000/svg">
<path d="M10 3.16849C12.2251 3.16849 12.4887 3.17698 13.3674 3.21707C14.1799 3.25415 14.6211 3.38989 14.9148 3.50401C15.3037 3.65518 15.5813 3.83578 15.8729 4.12738C16.1646 4.41899 16.3452 4.69659 16.4963 5.08556C16.6104 5.37921 16.7462 5.82046 16.7833 6.63294C16.8233 7.51167 16.8318 7.77523 16.8318 10.0003C16.8318 12.2254 16.8233 12.489 16.7833 13.3677C16.7462 14.1802 16.6104 14.6214 16.4963 14.9151C16.3452 15.3041 16.1646 15.5817 15.873 15.8733C15.5813 16.1649 15.3037 16.3455 14.9148 16.4966C14.6211 16.6108 14.1799 16.7465 13.3674 16.7836C12.4888 16.8237 12.2253 16.8322 10 16.8322C7.77475 16.8322 7.51122 16.8237 6.63263 16.7836C5.82014 16.7465 5.37889 16.6108 5.08524 16.4966C4.69627 16.3455 4.41867 16.1649 4.12707 15.8733C3.83546 15.5817 3.65486 15.3041 3.50369 14.9151C3.38957 14.6214 3.25382 14.1802 3.21675 13.3677C3.17666 12.489 3.16817 12.2254 3.16817 10.0003C3.16817 7.77523 3.17666 7.51167 3.21675 6.63295C3.25382 5.82046 3.38957 5.37921 3.50369 5.08556C3.65486 4.69659 3.83546 4.41899 4.12706 4.12739C4.41867 3.83578 4.69627 3.65518 5.08524 3.50401C5.37889 3.38989 5.82014 3.25415 6.63262 3.21707C7.51135 3.17698 7.77491 3.16849 10 3.16849ZM10 1.66699C7.7368 1.66699 7.45302 1.67658 6.56418 1.71713C5.67718 1.7576 5.07143 1.89848 4.54134 2.10448C3.99336 2.31744 3.52862 2.60238 3.06534 3.06566C2.60206 3.52894 2.31712 3.99368 2.10416 4.54166C1.89816 5.07175 1.75728 5.6775 1.71681 6.56451C1.67626 7.45334 1.66667 7.73712 1.66667 10.0003C1.66667 12.2635 1.67626 12.5473 1.71681 13.4361C1.75728 14.3231 1.89816 14.9289 2.10416 15.459C2.31712 16.007 2.60206 16.4717 3.06534 16.935C3.52862 17.3983 3.99336 17.6832 4.54134 17.8962C5.07143 18.1022 5.67718 18.243 6.56418 18.2835C7.45302 18.3241 7.7368 18.3337 10 18.3337C12.2632 18.3337 12.547 18.3241 13.4358 18.2835C14.3228 18.243 14.9286 18.1022 15.4587 17.8962C16.0066 17.6832 16.4714 17.3983 16.9347 16.935C17.398 16.4717 17.6829 16.007 17.8958 15.459C18.1019 14.9289 18.2427 14.3231 18.2832 13.4361C18.3238 12.5473 18.3333 12.2635 18.3333 10.0003C18.3333 7.73712 18.3238 7.45334 18.2832 6.56451C18.2427 5.6775 18.1019 5.07175 17.8958 4.54166C17.6829 3.99368 17.398 3.52894 16.9347 3.06566C16.4714 2.60238 16.0066 2.31744 15.4587 2.10448C14.9286 1.89848 14.3228 1.7576 13.4358 1.71713C12.547 1.67658 12.2632 1.66699 10 1.66699ZM10 5.72105C7.63662 5.72105 5.72073 7.63694 5.72073 10.0003C5.72073 12.3637 7.63662 14.2796 10 14.2796C12.3634 14.2796 14.2793 12.3637 14.2793 10.0003C14.2793 7.63695 12.3634 5.72105 10 5.72105ZM10 12.7781C8.46588 12.7781 7.22223 11.5344 7.22223 10.0003C7.22223 8.4662 8.46588 7.22255 10 7.22255C11.5341 7.22255 12.7778 8.4662 12.7778 10.0003C12.7778 11.5345 11.5341 12.7781 10 12.7781ZM14.4484 4.55197C13.8961 4.55197 13.4484 4.99969 13.4484 5.55197C13.4484 6.10426 13.8961 6.55197 14.4484 6.55197C15.0006 6.55197 15.4484 6.10426 15.4484 5.55197C15.4484 4.99969 15.0006 4.55197 14.4484 4.55197Z" fill="black"/>
</svg>
