<svg width="20" height="20" viewBox="0 0 20 20" fill="none" xmlns="http://www.w3.org/2000/svg">
<path d="M9.99996 3.16817C12.2251 3.16817 12.4886 3.17666 13.3673 3.21675C14.1798 3.25382 14.6211 3.38957 14.9147 3.50369C15.3037 3.65485 15.5813 3.83545 15.8729 4.12705C16.1645 4.41866 16.3451 4.69626 16.4963 5.08524C16.6104 5.37888 16.7461 5.82014 16.7832 6.63261C16.8233 7.51135 16.8318 7.7749 16.8318 10C16.8318 12.2251 16.8233 12.4887 16.7832 13.3674C16.7461 14.1799 16.6104 14.6211 16.4963 14.9148C16.3451 15.3037 16.1645 15.5813 15.8729 15.8729C15.5813 16.1645 15.3037 16.3451 14.9147 16.4963C14.6211 16.6104 14.1798 16.7462 13.3673 16.7833C12.4887 16.8233 12.2252 16.8318 9.99996 16.8318C7.77471 16.8318 7.51118 16.8233 6.63258 16.7833C5.8201 16.7462 5.37884 16.6104 5.0852 16.4963C4.69622 16.3451 4.41862 16.1645 4.12702 15.8729C3.83542 15.5813 3.65481 15.3037 3.50365 14.9148C3.38953 14.6211 3.25378 14.1799 3.2167 13.3674C3.17661 12.4887 3.16813 12.2251 3.16813 10C3.16813 7.7749 3.17661 7.51135 3.2167 6.63263C3.25378 5.82014 3.38953 5.37888 3.50365 5.08524C3.65481 4.69626 3.83541 4.41866 4.12701 4.12706C4.41862 3.83545 4.69622 3.65485 5.0852 3.50369C5.37884 3.38957 5.8201 3.25382 6.63257 3.21675C7.5113 3.17666 7.77486 3.16817 9.99996 3.16817ZM9.99996 1.66667C7.73676 1.66667 7.45297 1.67625 6.56414 1.71681C5.67714 1.75728 5.07138 1.89815 4.5413 2.10416C3.99332 2.31712 3.52858 2.60206 3.06529 3.06533C2.60201 3.52862 2.31708 3.99336 2.10412 4.54134C1.89811 5.07142 1.75724 5.67718 1.71676 6.56418C1.67621 7.45302 1.66663 7.73679 1.66663 10C1.66663 12.2632 1.67621 12.547 1.71676 13.4358C1.75724 14.3228 1.89811 14.9286 2.10412 15.4587C2.31708 16.0066 2.60201 16.4714 3.06529 16.9347C3.52858 17.3979 3.99332 17.6829 4.5413 17.8958C5.07138 18.1019 5.67714 18.2427 6.56414 18.2832C7.45297 18.3238 7.73676 18.3333 9.99996 18.3333C12.2632 18.3333 12.5469 18.3238 13.4358 18.2832C14.3228 18.2427 14.9285 18.1019 15.4586 17.8958C16.0066 17.6829 16.4713 17.3979 16.9346 16.9347C17.3979 16.4714 17.6828 16.0066 17.8958 15.4587C18.1018 14.9286 18.2427 14.3228 18.2832 13.4358C18.3237 12.547 18.3333 12.2632 18.3333 10C18.3333 7.7368 18.3237 7.45302 18.2832 6.56418C18.2427 5.67718 18.1018 5.07142 17.8958 4.54134C17.6828 3.99336 17.3979 3.52862 16.9346 3.06533C16.4713 2.60206 16.0066 2.31712 15.4586 2.10416C14.9285 1.89815 14.3228 1.75728 13.4358 1.71681C12.5469 1.67625 12.2632 1.66667 9.99996 1.66667ZM9.99996 5.72072C7.63658 5.72072 5.72068 7.63662 5.72068 10C5.72068 12.3634 7.63658 14.2793 9.99996 14.2793C12.3633 14.2793 14.2792 12.3634 14.2792 10C14.2792 7.63662 12.3633 5.72072 9.99996 5.72072ZM9.99996 12.7778C8.46584 12.7778 7.22218 11.5341 7.22218 10C7.22218 8.46588 8.46584 7.22222 9.99996 7.22222C11.5341 7.22222 12.7777 8.46588 12.7777 10C12.7777 11.5341 11.5341 12.7778 9.99996 12.7778ZM14.4483 4.55165C13.896 4.55165 13.4483 4.99936 13.4483 5.55165C13.4483 6.10393 13.896 6.55165 14.4483 6.55165C15.0006 6.55165 15.4483 6.10393 15.4483 5.55165C15.4483 4.99936 15.0006 4.55165 14.4483 4.55165Z" fill="#FFFCF5"/>
</svg>
