<svg width="24" height="24" viewBox="0 0 24 24" fill="none" xmlns="http://www.w3.org/2000/svg">
<path d="M10 7L16 12L10 17V14H2.19995C2.06885 13.3538 2 12.6849 2 12C2 11.3151 2.06885 10.6462 2.19995 10H10V7Z" fill="#FECC39"/>
<path d="M6.21265 20.1561C7.84608 21.3173 9.84331 22 12 22C17.5229 22 22 17.5228 22 12C22 6.47715 17.5229 2 12 2C9.84331 2 7.84608 2.68274 6.21265 3.84387L7.81601 5.18001C9.03331 4.43161 10.4663 4 12 4C16.4183 4 20 7.58172 20 12C20 16.4183 16.4183 20 12 20C10.4663 20 9.03331 19.5684 7.81601 18.82L6.21265 20.1561Z" fill="#FECC39"/>
</svg>
