<svg width="44" height="44" viewBox="0 0 44 44" fill="none" xmlns="http://www.w3.org/2000/svg">
<g clip-path="url(#clip0_0_103)">
<path fill-rule="evenodd" clip-rule="evenodd" d="M14.4825 19.2053L10.0366 30.1645H12.869L17.3078 19.2053H14.4825Z" fill="#FFFCF5"/>
<path fill-rule="evenodd" clip-rule="evenodd" d="M22.3737 6.91418V0L34.7108 30.1645H23.4799L19.034 19.2053H27.3762L22.3737 6.91418ZM28.4753 21.8335H22.9303L25.2413 27.5363H30.8075L28.4753 21.8335Z" fill="#FFFCF5"/>
<path fill-rule="evenodd" clip-rule="evenodd" d="M18.3717 41.3718H8.30335L10.4523 36.1294V36.1224L10.6355 35.669H10.6425L11.7276 33.0336H8.88815L4.4 44H21.035V33.0336H18.3717V41.3718Z" fill="#5187C4"/>
<path fill-rule="evenodd" clip-rule="evenodd" d="M19.0411 15.0256L20.3234 11.8661H17.5051L16.2157 15.0256H19.0411ZM37.5009 44.0283H40.3192L35.8734 33.0337H24.0506V44H26.7139V41.1663H36.3525L37.5009 44.0283ZM26.7139 38.4885V35.7115H34.1401L35.2675 38.4885H26.7139Z" fill="#FECC39"/>
</g>
<defs>
<clipPath id="clip0_0_103">
<rect width="35.9333" height="44" fill="white" transform="translate(4.4)"/>
</clipPath>
</defs>
</svg>
