<svg width="400" height="300" viewBox="0 0 400 300" fill="none" xmlns="http://www.w3.org/2000/svg">
<path d="M198.001 89.3429C198.001 78.4212 198.001 67.4974 198.001 56.5714L112 50C115.01 81.4901 119.214 107.828 122.919 127.582C131.051 171.005 137.74 181.585 145.216 189.399C160.844 205.827 182.085 210.191 195.26 211.465V250L198.1 249.796C221.053 248.16 239.933 240.163 252.793 226.665C260.375 218.714 267.333 208.469 275.746 163.501C280.514 138.024 284.2 111.843 286.698 85.6892L287 82.5415L198.001 89.3429ZM136.297 109.793C133.641 108.117 136.724 86.6683 150.141 83.5601C164.195 80.2744 176.144 100.291 174.517 102.558C173.363 104.161 165.684 96.6437 154.955 98.3391C143.439 100.179 138.363 111.101 136.297 109.793ZM181.548 168.278C161.605 168.6 145.833 145.745 147.105 144.155C148.135 142.913 158.909 156.588 176.137 156.516C185.213 156.516 188.919 152.684 195.254 150.411V163.836C190.099 165.893 187.889 168.199 181.554 168.291L181.548 168.278ZM270.441 162.515C262.303 205.991 255.587 215.927 248.859 222.972C234.707 237.823 215.249 242.791 200.467 244.23L200.513 197.666L202.022 197.357C223.663 193.414 240.058 206.215 241.166 204.165C242.366 201.858 223.519 182.229 202.271 184.247C201.661 184.306 201.084 184.378 200.526 184.464L200.612 94.4357L281.013 88.3506C278.553 113.282 274.992 138.227 270.448 162.528L270.441 162.515ZM222.141 118.73C224.207 117.416 229.283 128.344 240.799 130.191C251.534 131.912 259.214 124.368 260.361 125.972C261.988 128.239 250.039 148.222 235.985 144.97C222.574 141.874 219.492 120.425 222.148 118.743L222.141 118.73Z" fill="#FECC39"/>
</svg>
