<svg width="24" height="24" viewBox="0 0 24 24" fill="none" xmlns="http://www.w3.org/2000/svg">
<path d="M14 20C14 21.1046 13.1046 22 12 22C10.8954 22 10 21.1046 10 20C10 18.8954 10.8954 18 12 18C13.1046 18 14 18.8954 14 20Z" fill="#FECC39"/>
<path d="M16 8C16 8.11554 15.9469 8.52513 15.2569 9.04264C14.8558 9.34347 14.4232 9.55207 13.9707 9.69621C11.8658 10.3668 10 11.7909 10 14V16H14V14.6364C14 14.1572 14.3422 13.7507 14.8035 13.6212C17.839 12.7693 20 10.5739 20 8C20 4.68629 16.4183 2 12 2C7.58172 2 4 4.68629 4 8H8C8 7.88446 8.05313 7.47487 8.74315 6.95736C9.43439 6.43893 10.5727 6 12 6C13.4273 6 14.5656 6.43893 15.2569 6.95736C15.9469 7.47487 16 7.88446 16 8Z" fill="#FECC39"/>
</svg>
