<svg width="24" height="24" viewBox="0 0 24 24" fill="none" xmlns="http://www.w3.org/2000/svg">
<path d="M11.1282 5.91636L14.8205 5L15.4615 7.54545H16.6154L16.9402 8.83513L22 10.0909L21.2308 13.1455L19.8632 13.4849L19.4359 15.1818L15.7892 16.0869L16.359 17.2182H18.1538V17.9818L16.1026 18.2364L15.3333 19L14.3077 18.7455V17.9818L13.2821 17.4727V16.9636L14.3077 16.7091V16.2L11.6531 15.5412L10.2051 17.2182L9.05128 17.7273L8.53846 17.2182L8.92308 15.6909H9.82051L9.17949 13.1455L6.78631 12.5515L4.5641 13.6545L2.51282 13.1455L2 11.1091L3.51584 8.60105L3.02564 6.65455L5.58974 6.01818L10.7783 7.30588L11.1282 5.91636Z" fill="#FECC39"/>
</svg>
