<svg width="24" height="24" viewBox="0 0 24 24" fill="none" xmlns="http://www.w3.org/2000/svg">
<path fill-rule="evenodd" clip-rule="evenodd" d="M2.15634 11.6184C4.35391 6.25271 10.4364 3.62121 15.8462 5.72421C18.5677 6.78217 20.7349 8.91399 21.8435 11.6182L22 11.9999L21.8437 12.3816C19.6461 17.7473 13.5636 20.3788 8.15381 18.2758C5.4323 17.2178 3.2651 15.086 2.15648 12.3818L2 12.0001L2.15634 11.6184ZM4.15704 11.9996C5.09828 14.0145 6.7815 15.5991 8.86759 16.41C13.1459 18.0732 17.9324 16.0997 19.843 12.0004C18.9017 9.9855 17.2185 8.40091 15.1324 7.58997C10.8541 5.92679 6.0676 7.90034 4.15704 11.9996ZM8.01978 12C8.01978 9.78804 9.80691 8.00421 12 8.00421C14.1931 8.00421 15.9802 9.78804 15.9802 12C15.9802 14.212 14.1931 15.9958 12 15.9958C9.80691 15.9958 8.01978 14.212 8.01978 12ZM12 10.0039C10.8923 10.0039 10.0035 10.9027 10.0035 12C10.0035 13.0973 10.8923 13.9961 12 13.9961C13.1077 13.9961 13.9965 13.0973 13.9965 12C13.9965 10.9027 13.1077 10.0039 12 10.0039Z" fill="#FECC39"/>
</svg>
