<svg width="23" height="24" viewBox="0 0 23 24" fill="none" xmlns="http://www.w3.org/2000/svg">
<path d="M0 7.77465H18.1917V10.8476H0V7.77465ZM0 13.0602H18.1917V16.1332H0V13.0602ZM2.69507 12.0154C2.69507 9.61844 3.24634 7.52881 4.34887 5.74648C5.4514 3.94366 6.98269 2.54033 8.94274 1.53649C10.9232 0.512164 13.2304 0 15.8642 0C17.273 0 18.5899 0.122919 19.8149 0.368758C21.0399 0.614597 22.1016 0.932139 23 1.32138V5.43918C22.0608 4.98848 21.0195 4.6402 19.8762 4.39437C18.7532 4.14853 17.6303 4.02561 16.5073 4.02561C14.6902 4.02561 13.1385 4.34315 11.8522 4.97823C10.5863 5.59283 9.61651 6.49424 8.94274 7.68246C8.26897 8.87068 7.93209 10.315 7.93209 12.0154C7.93209 13.6953 8.26897 15.1293 8.94274 16.3175C9.61651 17.5058 10.5863 18.4072 11.8522 19.0218C13.1385 19.6364 14.6902 19.9437 16.5073 19.9437C17.6099 19.9437 18.7328 19.831 19.8762 19.6056C21.0195 19.3598 22.0608 19.0115 23 18.5608V22.7093C22.1016 23.0986 21.0399 23.4059 19.8149 23.6312C18.6103 23.8771 17.3036 24 15.8948 24C13.2406 24 10.9232 23.4981 8.94274 22.4942C6.96227 21.4904 5.42077 20.0871 4.31824 18.2843C3.23613 16.4814 2.69507 14.3918 2.69507 12.0154Z" fill="#FECC39"/>
</svg>
