<svg width="20" height="20" viewBox="0 0 20 20" fill="none" xmlns="http://www.w3.org/2000/svg">
<path fill-rule="evenodd" clip-rule="evenodd" d="M16.5116 4.51485C17.2287 4.70652 17.7935 5.27127 17.9851 5.98835C18.3334 7.2881 18.3334 9.99991 18.3334 9.99991C18.3334 9.99991 18.3334 12.7117 17.9851 14.0115C17.7935 14.7286 17.2287 15.2933 16.5116 15.485C15.2119 15.8333 10.0001 15.8333 10.0001 15.8333C10.0001 15.8333 4.78827 15.8333 3.48852 15.485C2.77144 15.2933 2.20669 14.7286 2.01502 14.0115C1.66675 12.7117 1.66675 9.99991 1.66675 9.99991C1.66675 9.99991 1.66675 7.2881 2.01502 5.98835C2.20669 5.27127 2.77144 4.70652 3.48852 4.51485C4.78827 4.16658 10.0001 4.16658 10.0001 4.16658C10.0001 4.16658 15.2119 4.16658 16.5116 4.51485ZM12.6516 9.99987L8.29553 12.4619V7.53768L12.6516 9.99987Z" fill="#FFFCF5"/>
</svg>
